 <svg  version="1.0" xmlns="http://www.w3.org/2000/svg"  width="300.000000pt" height="300.000000pt" viewBox="0 0 300.000000 300.000000"  preserveAspectRatio="xMidYMid meet">  <g transform="translate(0.000000,300.000000) scale(0.100000,-0.100000)" fill="#ffffff" stroke="none"> <path d="M1395 2413 c-63 -22 -144 -100 -171 -165 -15 -39 -26 -51 -59 -64 -22 -8 -70 -33 -107 -55 -183 -108 -318 -276 -384 -479 -24 -75 -28 -103 -31 -242 -2 -87 -1 -158 2 -158 2 0 21 9 42 19 21 11 64 22 95 26 l58 6 -14 -33 c-8 -18 -21 -94 -31 -168 -9 -74 -18 -142 -21 -151 -4 -15 76 -130 95 -137 4 -1 4 23 -1 55 -13 74 -2 369 14 419 12 34 22 44 93 81 44 23 83 42 87 43 4 0 2 -14 -4 -31 -6 -18 -8 -56 -4 -90 5 -48 3 -61 -9 -66 -24 -9 -47 -62 -47 -105 1 -73 136 -318 175 -318 6 0 -5 17 -24 38 l-34 37 40 -36 c22 -20 50 -36 62 -37 18 0 23 7 33 51 13 63 12 216 -2 276 -14 54 -64 106 -111 115 -33 6 -36 10 -43 51 -3 25 -3 56 0 70 10 38 63 92 104 106 20 7 42 18 47 25 6 7 25 15 43 19 45 9 44 -20 -2 -35 -55 -18 -61 -66 -21 -147 26 -52 61 -85 125 -119 52 -27 171 -25 226 4 80 41 154 155 142 218 -2 11 -20 28 -41 39 -38 20 -50 45 -21 45 8 0 13 -3 11 -7 -3 -5 10 -8 29 -9 19 0 42 -8 51 -18 10 -9 34 -25 53 -34 41 -20 95 -95 111 -155 27 -98 -24 -297 -76 -297 -12 0 -34 -9 -49 -21 -52 -41 -23 -135 49 -159 55 -18 96 15 94 77 -1 28 -1 28 -9 -4 -4 -18 -13 -40 -20 -48 -14 -17 -68 -20 -90 -4 -12 8 -10 9 7 4 26 -7 78 17 87 40 9 25 7 63 -4 70 -5 3 -10 1 -10 -6 0 -7 -3 -10 -6 -7 -3 4 8 38 25 76 58 131 65 247 22 334 -11 23 -19 44 -17 46 7 6 123 -58 140 -77 9 -10 21 -45 26 -77 11 -66 12 -380 2 -406 -4 -9 -21 -27 -39 -40 -17 -13 -60 -45 -94 -71 -113 -86 -259 -141 -427 -162 l-53 -6 3 28 c2 23 8 28 33 30 273 17 419 93 498 260 31 66 32 72 33 218 l2 150 -8 -145 c-7 -155 -20 -206 -67 -269 -40 -55 -101 -107 -158 -136 -59 -30 -215 -65 -290 -65 l-50 0 0 229 0 229 49 6 c114 13 240 115 271 218 16 55 19 87 9 112 -11 29 -20 17 -20 -28 -1 -85 -79 -202 -165 -246 -19 -10 -58 -23 -87 -28 -52 -9 -52 -9 -53 17 -1 25 -1 24 -10 -5 l-9 -32 -62 20 c-145 45 -232 135 -246 254 -7 61 -22 66 -22 7 1 -127 140 -270 282 -289 l48 -7 0 -274 0 -275 78 7 c95 9 198 35 275 69 116 51 268 171 346 273 l33 43 -17 135 c-9 74 -22 158 -29 185 -7 28 -10 50 -7 50 3 0 33 -4 66 -10 46 -7 65 -16 82 -37 l22 -27 5 25 c32 154 -1 374 -81 533 -74 148 -225 296 -380 373 -90 45 -92 47 -123 109 -31 63 -72 104 -140 139 -50 26 -162 30 -225 8z m95 -63 c0 -40 4 -70 10 -70 6 0 10 30 10 70 l0 70 33 -6 c54 -11 110 -39 149 -77 l36 -36 -14 -47 c-8 -26 -14 -82 -14 -125 l0 -78 -47 -8 c-61 -10 -244 -10 -304 0 l-46 8 -5 97 c-3 53 -11 109 -18 125 -12 25 -11 30 16 58 33 35 70 56 129 75 65 21 65 21 65 -56z m-210 -139 c5 -30 10 -78 10 -107 0 -47 -3 -54 -20 -54 -30 0 -40 -31 -40 -124 0 -76 3 -87 26 -115 53 -64 242 -92 379 -56 108 28 135 62 135 170 0 91 -7 114 -36 121 -22 6 -24 11 -24 73 0 65 12 136 25 149 9 9 23 -15 41 -73 20 -63 29 -276 16 -372 -16 -115 -95 -253 -178 -313 -129 -92 -269 -22 -370 185 l-46 94 4 188 c3 168 6 194 27 246 13 34 27 55 32 50 5 -5 13 -33 19 -62z m556 -58 c25 -16 60 -36 122 -68 50 -27 194 -172 238 -240 22 -33 47 -81 58 -105 10 -25 22 -52 26 -61 19 -37 42 -180 46 -283 l3 -108 -27 6 c-15 4 -55 9 -89 13 -54 5 -63 3 -63 -11 0 -26 -17 -18 -30 15 -12 29 -82 73 -150 94 -14 4 -49 29 -78 56 -50 46 -139 89 -182 89 -28 0 -25 12 18 73 21 30 44 74 52 98 9 26 24 48 40 57 14 8 34 34 43 56 18 45 23 146 8 174 -6 9 -13 30 -16 46 -3 16 -14 30 -25 33 -11 3 -20 9 -20 13 0 4 -3 22 -6 39 -7 36 -3 37 32 14z m-646 -18 c0 -14 -11 -34 -25 -47 -14 -12 -25 -29 -25 -38 0 -9 -7 -32 -16 -50 -18 -35 -14 -134 5 -153 6 -6 11 -19 11 -29 0 -11 12 -26 28 -35 16 -9 37 -37 52 -72 13 -31 39 -78 58 -105 18 -27 31 -50 30 -51 -2 -1 -25 -8 -53 -14 -55 -14 -102 -40 -155 -86 -19 -17 -66 -44 -105 -60 -72 -30 -125 -72 -125 -99 0 -9 -7 -16 -15 -16 -9 0 -12 6 -9 15 5 12 -3 15 -42 15 -27 0 -66 -5 -87 -11 -22 -6 -41 -8 -45 -5 -3 3 -5 54 -5 114 1 288 149 542 403 695 52 31 101 57 108 57 6 0 12 -11 12 -25z m0 -200 c0 -80 -4 -145 -8 -145 -25 0 -32 30 -32 145 0 115 7 145 32 145 4 0 8 -65 8 -145z m648 3 c2 -119 1 -136 -14 -142 -9 -4 -17 -5 -18 -4 -1 2 0 67 2 146 3 104 7 142 15 139 8 -2 13 -47 15 -139z m-494 67 c11 -1 51 -3 89 -4 57 -1 67 -4 67 -18 0 -14 2 -15 9 -5 4 7 24 15 44 18 89 10 103 12 128 19 45 11 62 -17 56 -92 -6 -82 -24 -108 -89 -129 -137 -42 -341 -12 -375 56 -14 27 -17 128 -5 146 9 14 34 23 46 16 5 -3 18 -6 30 -7z m-207 -112 c-2 -21 -4 -4 -4 37 0 41 2 58 4 38 2 -21 2 -55 0 -75z m730 5 c-2 -18 -4 -4 -4 32 0 36 2 50 4 33 2 -18 2 -48 0 -65z m-492 -461 c5 -31 3 -37 -7 -32 -10 6 -11 5 0 -6 6 -7 12 -26 12 -42 0 -27 -2 -28 -17 -16 -10 7 -8 2 5 -12 20 -24 32 -89 15 -89 -4 0 -24 17 -45 37 -37 36 -46 65 -29 92 7 11 11 10 20 -5 6 -11 11 -14 11 -7 0 6 -5 15 -10 18 -11 7 -12 57 -3 109 5 28 6 28 23 10 10 -11 21 -36 25 -57z m291 57 c-4 -10 4 -21 24 -32 17 -9 33 -25 36 -35 9 -27 -4 -67 -19 -61 -10 3 -13 -3 -9 -24 3 -23 -4 -35 -40 -67 l-43 -40 -6 35 c-3 19 -3 39 0 44 2 5 6 41 8 80 4 69 22 116 44 116 6 0 8 -7 5 -16z m-259 -45 c19 -19 124 -23 166 -6 l37 16 0 -34 c0 -22 -6 -38 -17 -44 -10 -6 -13 -11 -7 -11 13 0 26 -50 13 -50 -5 0 -9 -17 -9 -39 0 -22 -6 -44 -15 -51 -16 -14 -139 -20 -151 -8 -9 9 -42 238 -34 238 3 0 11 -5 17 -11z m-97 -18 c0 -5 -5 -22 -11 -38 l-11 -28 -9 24 c-6 14 -7 31 -5 38 6 15 36 18 36 4z m-131 -255 c44 -46 64 -262 33 -347 -7 -19 -11 -17 -49 24 -78 85 -136 233 -119 303 8 29 55 53 91 46 13 -2 33 -14 44 -26z m68 -238 c-2 -18 -4 -6 -4 27 0 33 2 48 4 33 2 -15 2 -42 0 -60z m587 17 c-15 -23 -15 -27 0 -51 22 -32 66 -30 81 4 9 20 25 31 25 16 0 -11 -23 -49 -34 -56 -20 -14 -56 -8 -76 12 -24 24 -26 57 -3 82 23 26 26 22 7 -7z m71 -19 c0 -36 -26 -56 -49 -37 -31 26 -11 75 29 69 15 -2 20 -11 20 -32z"/> <path d="M1446 2218 c-52 -74 48 -151 104 -81 38 48 8 103 -56 103 -23 0 -38 -7 -48 -22z m54 -36 c0 -45 -8 -56 -27 -41 -16 14 -17 51 -1 67 20 20 28 13 28 -26z"/> <path d="M1253 1714 c26 -50 105 -162 131 -183 11 -10 21 -9 45 3 43 23 109 20 151 -5 l35 -21 -24 26 c-21 23 -32 26 -88 26 -42 0 -72 -6 -88 -16 -23 -15 -25 -15 -31 2 -14 42 -64 140 -81 160 -10 11 -31 29 -47 39 l-28 19 25 -50z"/> <path d="M1740 1743 c-14 -10 -33 -27 -43 -38 -36 -41 -101 -185 -77 -170 21 13 160 225 148 225 -2 0 -15 -8 -28 -17z"/> <path d="M1502 1640 c0 -46 2 -58 8 -39 4 14 4 43 0 65 -7 35 -8 32 -8 -26z"/> <path d="M1320 1968 c-33 -36 -36 -65 -9 -94 37 -40 89 -28 107 25 9 26 7 33 -17 60 -33 37 -53 39 -81 9z m71 -34 c19 -23 -1 -49 -37 -49 -30 0 -42 20 -30 51 7 19 50 18 67 -2z"/> <path d="M1596 1961 c-14 -15 -26 -34 -26 -43 0 -26 40 -68 64 -68 29 0 76 36 76 58 0 19 -34 74 -44 73 -3 -1 -7 -1 -8 0 -25 7 -41 2 -62 -20z m79 -31 c4 -12 1 -27 -5 -35 -27 -33 -78 -5 -65 35 4 14 15 20 35 20 20 0 31 -6 35 -20z"/> <path d="M1417 1369 c15 -15 115 -25 137 -12 12 7 0 9 -41 9 -32 -1 -69 3 -83 8 -20 7 -23 6 -13 -5z"/> <path d="M1424 1302 c9 -16 77 -23 111 -13 27 9 25 10 -20 9 -27 -1 -61 2 -74 6 -15 5 -21 5 -17 -2z"/> <path d="M2295 1151 c5 -48 6 -50 15 -21 13 39 11 57 -5 57 -10 0 -13 -10 -10 -36z"/> <path d="M2273 1089 c-19 -7 -23 -16 -23 -49 0 -22 2 -40 5 -40 5 0 46 92 43 95 -2 2 -13 -1 -25 -6z"/> <path d="M710 1048 c22 -50 40 -60 40 -23 0 37 -17 65 -40 65 -19 0 -19 -1 0 -42z"/> <path d="M914 826 c15 -30 65 -75 106 -96 14 -7 21 -8 15 -3 -123 115 -135 125 -121 99z"/> <path d="M1276 829 c-8 -12 -13 -26 -10 -31 3 -4 -11 -8 -30 -8 -19 0 -37 -4 -40 -9 -3 -5 -16 -7 -28 -3 -14 3 -19 2 -14 -6 4 -7 3 -12 -2 -12 -6 0 -12 7 -16 15 -3 9 -19 15 -41 15 -28 0 -35 -4 -35 -20 0 -10 7 -23 16 -28 16 -9 83 2 118 20 20 11 44 16 96 23 58 8 79 57 28 63 -18 2 -31 -4 -42 -19z"/> <path d="M916 769 c72 -76 236 -165 364 -198 94 -23 204 -36 196 -22 -3 5 -37 12 -74 16 -126 12 -251 57 -359 128 -23 15 -44 27 -48 27 -3 0 -24 18 -46 40 -47 47 -77 55 -33 9z"/> </g> </svg> 